<?xml version="1.0" standalone="no"?><!DOCTYPE svg PUBLIC "-//W3C//DTD SVG 1.1//EN" "http://www.w3.org/Graphics/SVG/1.1/DTD/svg11.dtd"><svg t="1561042098711" class="icon" viewBox="0 0 1036 1024" version="1.1" xmlns="http://www.w3.org/2000/svg" p-id="1336" xmlns:xlink="http://www.w3.org/1999/xlink" width="202.34375" height="200"><defs><style type="text/css"></style></defs><path d="M867.567045 646.752791c25.824273-54.351491 40.448391-115.024949 40.448391-179.129335 0-230.413889-186.893336-417.308967-417.303742-417.308967S73.400985 237.209567 73.400985 467.623456c0 2.887554 0.181125 5.776849 0.181126 8.667886l149.877616-185.992935h87.039364l-128.931532 194.840204h41.893909v-49.476785l89.564668-139.583087v353.749698h-89.564668v-74.398916H87.486953c38.823489 145.361677 154.029563 259.482741 300.11574 296.68307-9.390645 23.657737-36.656953 80.71914-81.981791 90.830802-56.15926 12.640449 152.406402 3.068679 301.199009-94.444598 114.303931-33.04664 208.381054-113.581172 259.484483-218.675583l1.262651-3.070421z m-510.482205-51.103429c-4.334814-10.115146-6.499608-20.944342-6.499608-32.503264V369.572028c0-11.558922 2.166536-22.393344 6.499608-32.505006 4.33133-10.113404 10.291046-18.960673 17.694538-26.365907 7.403492-7.401751 16.252503-13.361466 26.365907-17.694538 10.111662-4.333072 20.944342-6.50135 32.503264-6.50135h73.674415c11.558922 0 22.391602 2.168278 32.506748 6.50135 9.927054 4.333072 18.598423 10.111662 26.003657 17.335771l-79.998123 116.830976v-20.764959c0-4.334814-1.443777-7.946868-4.333072-10.834421-2.887554-2.889295-6.50135-4.334814-10.834421-4.334814s-7.946868 1.445518-10.834422 4.334814c-2.887554 2.887554-4.33133 6.499608-4.33133 10.834421v65.004788l-92.63683 135.070631c-2.170019-3.429188-4.15543-7.0395-5.780331-10.834422z m233.122059-32.503264c0 11.558922-2.166536 22.388119-6.497867 32.503264-4.333072 10.113404-10.294529 18.962415-17.699763 26.365908-7.401751 7.401751-16.250762 13.363208-26.362424 17.696279-10.111662 4.329589-20.944342 6.499608-32.503264 6.499608h-73.674415c-11.557181 0-22.389861-2.170019-32.505006-6.499608-10.113404-4.333072-18.960673-10.294529-26.364166-17.696279-3.249804-3.246321-6.320224-7.042984-9.028394-10.834422l89.566409-130.556434v45.687089c0 4.33133 1.443777 7.945126 4.333072 10.830938 2.885812 2.891037 6.499608 4.336555 10.834422 4.336555s7.945126-1.445518 10.832679-4.336555c2.889295-2.885812 4.334814-6.496125 4.334814-10.830938v-89.92866l83.604952-122.067932a82.624438 82.624438 0 0 1 14.446476 22.752111c4.334814 10.111662 6.496125 20.946084 6.496125 32.505006v193.57407h0.18635z m67.852284-273.803823h185.710798l-56.81758 135.204733c19.991693 13.678435 34.722048 28.764074 44.191064 45.244726 9.470758 16.489359 14.204395 36.12751 14.204395 58.921419 0 35.075591-12.191119 63.392077-36.562907 84.963391-24.382238 21.569573-55.856224 32.353488-94.434149 32.353488-18.59494 0-37.707131-2.810924-57.345282-8.417097v-98.904806c15.42699 7.01686 29.458968 10.524419 42.087226 10.524419 12.274715 0 21.832552-3.592897 28.673512-10.787399 6.839218-7.182311 10.257956-17.442008 10.257956-30.773867 0-14.376812-6.050278-25.951409-18.150835-34.72379-12.100556-8.761931-28.326936-13.150734-48.661722-13.150734l25.778992-68.916395H658.059183v-101.538088z m172.263994 67.199189L643.375851 624.021579l3.568515 2.493955 186.947326-267.478374-3.568515-2.495696z" p-id="1337"></path></svg>